<svg width="190" height="190" viewBox="0 0 190 190" fill="none" xmlns="http://www.w3.org/2000/svg">
<g clip-path="url(#clip0_1_887)">
<path d="M170.39 -0.300049H20.39C9.34432 -0.300049 0.390015 8.65426 0.390015 19.7V169.7C0.390015 180.746 9.34432 189.7 20.39 189.7H170.39C181.436 189.7 190.39 180.746 190.39 169.7V19.7C190.39 8.65426 181.436 -0.300049 170.39 -0.300049Z" fill="url(#paint0_linear_1_887)"/>
<path fill-rule="evenodd" clip-rule="evenodd" d="M64.6 53.84C58.0532 54.424 51.8287 56.9445 46.72 61.08L37.8 48.21C45.527 42.262 54.8654 38.7775 64.6 38.21V53.84ZM120.7 130.62V160H105.06V127.38C110.3 120.86 114.88 115.38 118.06 107.54C120.305 111.726 123.948 114.992 128.353 116.77C132.758 118.547 137.647 118.724 142.169 117.268C146.691 115.813 150.559 112.818 153.1 108.804C155.641 104.791 156.695 100.013 156.077 95.3035C155.458 90.5936 153.208 86.2495 149.718 83.0277C146.227 79.8058 141.717 77.9101 136.973 77.6706C132.228 77.4311 127.55 78.863 123.753 81.717C119.955 84.571 117.279 88.6663 116.19 93.29C115.84 94.8 115.5 96.42 115.19 97.95C113.536 105.101 110.284 111.784 105.68 117.5C101.518 122.694 96.3394 126.983 90.4607 130.104C84.582 133.224 78.1276 135.11 71.4936 135.647C64.8597 136.183 58.1861 135.358 51.8824 133.223C45.5788 131.087 39.778 127.686 34.8361 123.228C29.8942 118.77 25.9154 113.349 23.1439 107.298C20.3724 101.246 18.8666 94.6928 18.719 88.0388C18.5715 81.3849 19.7851 74.7709 22.2856 68.6029C24.7861 62.4349 28.5206 56.8429 33.26 52.17L42.37 65.31C39.083 69.1523 36.7168 73.6944 35.4518 78.59C34.1868 83.4857 34.0563 88.6055 35.0705 93.5592C36.0846 98.5129 38.2165 103.17 41.3035 107.174C44.3906 111.179 48.3514 114.426 52.8838 116.667C57.4163 118.909 62.4007 120.086 67.4571 120.108C72.5135 120.131 77.5082 118.999 82.0606 116.798C86.6129 114.597 90.6025 111.386 93.7253 107.409C96.8481 103.432 99.0216 98.7944 100.08 93.85C100.27 92.94 100.42 91.97 100.59 91.04C102.037 83.6896 105.74 76.9736 111.185 71.8279C116.63 66.6823 123.544 63.3634 130.964 62.3337C138.385 61.3041 145.941 62.615 152.581 66.0837C159.221 69.5525 164.614 75.0063 168.007 81.6851C171.401 88.3639 172.626 95.935 171.512 103.343C170.399 110.751 167.002 117.628 161.795 123.014C156.588 128.4 149.831 132.027 142.464 133.391C135.098 134.754 127.49 133.786 120.7 130.62ZM70.58 38.16C78.9174 38.6624 86.9841 41.3077 94 45.84L85.08 58.71C80.6829 55.9676 75.7018 54.2992 70.54 53.84L70.58 38.16ZM98.86 49.39C103.868 53.5643 107.995 58.6941 111 64.48C106.285 68.005 102.363 72.4818 99.49 77.62C97.7706 71.7333 94.4548 66.4377 89.91 62.32L98.86 49.39Z" fill="white"/>
</g>
<defs>
<linearGradient id="paint0_linear_1_887" x1="-9.19999" y1="410.38" x2="149.24" y2="-67.82" gradientUnits="userSpaceOnUse">
<stop offset="0.44" stop-color="#272B41"/>
<stop offset="0.73" stop-color="#5260C4"/>
<stop offset="1" stop-color="#D1E7F3"/>
</linearGradient>
<clipPath id="clip0_1_887">
<rect width="190" height="190" fill="white"/>
</clipPath>
</defs>
</svg>
