<svg width="441" height="125" viewBox="0 0 441 125" fill="none" xmlns="http://www.w3.org/2000/svg">
<g clip-path="url(#clip0_1_896)">
<mask id="mask0_1_896" style="mask-type:luminance" maskUnits="userSpaceOnUse" x="287" y="3" width="154" height="123">
<path d="M333.38 19.0003C326.831 19.5818 320.605 22.1064 315.5 26.2503L306.58 13.3703C314.307 7.42231 323.645 3.93782 333.38 3.37031V19.0003ZM389.48 95.7803V125.16H373.84V92.5403C379.08 86.0203 383.66 80.5403 386.84 72.7003C389.076 76.8915 392.712 80.1656 397.113 81.9527C401.515 83.7398 406.404 83.9267 410.929 82.4808C415.454 81.0348 419.328 78.0477 421.878 74.0395C424.428 70.0312 425.491 65.2557 424.883 60.5443C424.274 55.833 422.033 51.4841 418.549 48.255C415.065 45.0259 410.558 43.1209 405.814 42.8719C401.07 42.6228 396.389 44.0453 392.586 46.8918C388.783 49.7384 386.098 53.8286 385 58.4503C384.65 59.9603 384.31 61.5803 384 63.1103C382.346 70.261 379.094 76.9446 374.49 82.6603C370.305 87.7831 365.124 92.0026 359.26 95.0631C353.396 98.1236 346.971 99.9613 340.376 100.465C333.78 100.968 327.151 100.127 320.89 97.9918C314.63 95.8567 308.868 92.4725 303.954 88.0441C299.041 83.6158 295.078 78.2357 292.305 72.23C289.533 66.2243 288.009 59.7181 287.827 53.1059C287.644 46.4938 288.806 39.9134 291.242 33.7637C293.678 27.6141 297.338 22.0233 302 17.3303L311.11 30.4703C307.836 34.3162 305.481 38.8583 304.227 43.751C302.972 48.6437 302.85 53.7581 303.87 58.7051C304.89 63.6521 307.025 68.3012 310.112 72.2988C313.2 76.2964 317.158 79.5371 321.687 81.7743C326.215 84.0115 331.194 85.1863 336.245 85.2092C341.296 85.2322 346.286 84.1027 350.835 81.9067C355.383 79.7107 359.371 76.5061 362.495 72.5368C365.618 68.5674 367.795 63.9378 368.86 59.0003C369.05 58.0903 369.2 57.1203 369.37 56.1903C370.817 48.8399 374.52 42.1239 379.965 36.9782C385.41 31.8326 392.324 28.5137 399.744 27.484C407.165 26.4543 414.721 27.7652 421.361 31.234C428.001 34.7028 433.394 40.1566 436.787 46.8354C440.181 53.5142 441.406 61.0853 440.292 68.4935C439.179 75.9017 435.782 82.778 430.575 88.1641C425.368 93.5502 418.611 97.1777 411.244 98.5411C403.878 99.9045 396.27 98.9359 389.48 95.7703V95.7803ZM339.36 3.32031C347.711 3.81588 355.792 6.46143 362.82 11.0003L353.9 23.8703C349.503 21.1278 344.522 19.4595 339.36 19.0003V3.32031ZM367.64 14.5503C372.645 18.7256 376.768 23.8552 379.77 29.6403C375.055 33.1652 371.133 37.642 368.26 42.7803C366.541 36.8936 363.225 31.5979 358.68 27.4803L367.64 14.5503Z" fill="white"/>
</mask>
<g mask="url(#mask0_1_896)">
<path d="M440.82 3.32031H287.52V125.16H440.82V3.32031Z" fill="url(#paint0_linear_1_896)"/>
</g>
<path fill-rule="evenodd" clip-rule="evenodd" d="M37.36 57.1202H17.2V20.2502H37.36C52.48 20.2502 60.36 27.0102 60.36 38.6802C60.36 50.3502 52.53 57.1202 37.36 57.1202ZM38.16 5.66016H0V98.5002H17.2V71.7102H38.2C62.6 71.7102 77.72 59.1102 77.72 38.7102C77.72 18.3102 62.56 5.66016 38.16 5.66016Z" fill="black"/>
<path fill-rule="evenodd" clip-rule="evenodd" d="M110 99.4298C113.41 99.4533 116.796 98.8674 120 97.6998L119.21 84.4398C117.325 85.2955 115.28 85.7452 113.21 85.7598C106.58 85.7598 103.21 82.0498 103.21 75.1498V0.0898438H86.6599V76.3498C86.6599 91.0698 95.2899 99.4298 110.01 99.4298" fill="black"/>
<path fill-rule="evenodd" clip-rule="evenodd" d="M177 27.6719V63.4819C177 77.6719 169.17 84.8419 157.63 84.8419C147.15 84.8419 141.05 78.7419 141.05 65.8419V27.6719H124.48V68.1219C124.48 89.4819 136.82 99.4319 154.99 99.4319C164.14 99.4319 172.5 95.9819 177.8 89.4319V98.4319H193.59V27.6719H177Z" fill="black"/>
<path fill-rule="evenodd" clip-rule="evenodd" d="M241 81.2619C228.4 81.2619 219.38 73.0319 219.38 60.9619C219.38 48.8919 228.38 40.9619 241 40.9619C253.62 40.9619 262.47 49.0019 262.47 61.0019C262.47 73.0019 253.47 81.3019 240.98 81.3019M262.98 27.7119V37.1319C257.14 30.1319 248.39 26.9219 238.44 26.9219C218.15 26.9219 202.63 40.4419 202.63 61.0019C202.63 81.5619 218.15 95.3519 238.44 95.3519C247.99 95.3519 256.35 92.3519 262.18 85.9419V89.6519C262.18 103.972 255.28 111.142 239.63 111.142C229.82 111.142 219.74 107.822 213.51 102.652L206.08 115.122C214.17 121.752 227.3 125.202 240.56 125.202C265.36 125.202 278.76 113.522 278.76 87.7919V27.6719L262.98 27.7119Z" fill="black"/>
</g>
<defs>
<linearGradient id="paint0_linear_1_896" x1="289.51" y1="289.59" x2="402.61" y2="-51.7797" gradientUnits="userSpaceOnUse">
<stop offset="0.44" stop-color="#272B41"/>
<stop offset="0.73" stop-color="#5260C4"/>
<stop offset="1" stop-color="#D1E7F3"/>
</linearGradient>
<clipPath id="clip0_1_896">
<rect width="441" height="125" fill="white"/>
</clipPath>
</defs>
</svg>
